# xmcd
#
# Track frame offsets: 
#        150
#        20438
#        41086
#        64231
#        94862
#        119959
#        142122
#        166179
#        190315
#        206786
#        236442
#        262772
#
# Disc length: 3784 seconds
#
# Revision: 5
# Processed by: cddbd v1.5.2PL0 Copyright (c) Steve Scherf et al.
# Submitted via: ExactAudioCopyFreeDBPlugin 1.0
#
DISCID=b10ec60c
DTITLE=Koko Taylor - Old school
DYEAR=2007
DGENRE=Blues
TTITLE0=Piece of man
TTITLE1=Gonna buy me a mule
TTITLE2=Black rat
TTITLE3=Money is the name of the game
TTITLE4=You ain't worth a good woman
TTITLE5=Better watch your step
TTITLE6=Bad avenue
TTITLE7=Bad rooster
TTITLE8=Don't go no further
TTITLE9=All your love
TTITLE10=Hard pill to swallow
TTITLE11=Young fashioned ways
EXTD=YEAR: 2007
EXTT0=
EXTT1=
EXTT2=
EXTT3=
EXTT4=
EXTT5=
EXTT6=
EXTT7=
EXTT8=
EXTT9=
EXTT10=
EXTT11=
PLAYORDER=
